# xmcd CD database file
#
# Track frame offsets:
#	150
#	19527
#	39362
#	64260
#	87642
#	100762
#	114440
#	140940
#	163807
#	177682
#	198357
#	211822
#	230757
#	253170
#	270955
#
# Disc length: 4252 seconds
#
# Revision: 0
# Processed by: cddbd v1.5.1PL2 Copyright (c) Steve Scherf et al.
# Submitted via: CDex 1.51
#
DISCID=da109a0f
DTITLE=Dane VanNatter - Double Standards
DYEAR=2001
DGENRE=Jazz
TTITLE0=Move On
TTITLE1=Give Me the Simple Life
TTITLE2=What You Won't Do For Love
TTITLE3=Don't Misunderstand
TTITLE4=You're Driving Me Crazy
TTITLE5=My Heart Stood Still
TTITLE6=Loving You
TTITLE7=Just Don't Want to be Lonely
TTITLE8=I Remember You
TTITLE9=Moon About Town
TTITLE10=You Turned the Tables on Me
TTITLE11=If Love is Good to Me
TTITLE12=Just a-Sittin' and a'Rockin'
TTITLE13=Love Won't Let Me Wait
TTITLE14=Paint Me a Leaf (That Never Falls)
EXTD=YEAR: 2001
EXTT0=
EXTT1=
EXTT2=
EXTT3=
EXTT4=
EXTT5=
EXTT6=
EXTT7=
EXTT8=
EXTT9=
EXTT10=
EXTT11=
EXTT12=
EXTT13=
EXTT14=
PLAYORDER=
